<svg version="1.1" id="Layer_1" xmlns="http://www.w3.org/2000/svg" xmlns:xlink="http://www.w3.org/1999/xlink" x="0px" y="0px"
	 width="100%" viewBox="0 0 225 225" enable-background="new 0 0 225 225" xml:space="preserve">
<path fill="#FBFDFE" opacity="1.000000" stroke="none" 
	d="
M124.000000,226.000000 
	C82.666672,226.000000 41.833340,226.000000 1.000005,226.000000 
	C1.000004,151.000000 1.000004,76.000015 1.000002,1.000015 
	C75.999992,1.000010 150.999985,1.000010 225.999969,1.000005 
	C225.999985,75.999985 225.999985,150.999969 226.000000,225.999969 
	C192.166672,226.000000 158.333328,226.000000 124.000000,226.000000 
M121.853119,221.986282 
	C132.904373,221.989685 143.955612,221.993073 155.497330,222.000824 
	C155.497330,222.000824 155.972046,221.877502 156.902283,222.028000 
	C174.944443,221.969055 192.986588,221.910126 211.498871,221.942017 
	C211.498871,221.942017 211.947723,221.775284 212.653030,221.777969 
	C217.983170,220.101669 221.379471,216.783859 221.951813,210.501282 
	C221.951813,210.501282 221.853516,210.031128 222.005173,209.100739 
	C222.013977,148.048126 222.025269,86.995514 222.023926,25.942907 
	C222.023865,22.952681 221.912872,19.962460 221.951889,16.502304 
	C221.951889,16.502304 221.830795,16.037710 221.922806,15.307501 
	C220.716110,9.853266 217.678925,6.209300 211.503067,5.058185 
	C211.503067,5.058185 211.032532,5.148176 210.103378,4.986276 
	C146.219681,4.973020 82.335976,4.959029 18.452276,4.954597 
	C17.625509,4.954540 16.798737,5.076137 15.501178,5.055943 
	C15.501178,5.055943 15.050331,5.215961 14.342708,5.201624 
	C9.382046,6.704290 6.004050,9.678609 5.050629,15.497894 
	C5.050629,15.497894 5.135247,15.969549 4.963169,16.896849 
	C4.953122,80.614273 4.942155,144.331696 4.941452,208.049118 
	C4.941441,209.041901 5.067793,210.034698 5.050395,211.498489 
	C5.050395,211.498489 5.193388,211.955215 5.145772,212.667435 
	C6.644165,217.662384 9.739926,220.922897 15.497832,221.945160 
	C15.497832,221.945160 15.970613,221.859726 16.898914,222.024368 
	C51.273495,221.972900 85.648071,221.921448 120.455681,221.988297 
	C120.455681,221.988297 120.903976,221.965637 121.853119,221.986282 
z"/>
<path fill="#157DC3" opacity="1.000000" stroke="none" 
	d="
M5.193852,15.040614 
	C6.004050,9.678609 9.382046,6.704290 14.792877,5.341678 
	C15.243046,5.481732 15.681000,5.518599 15.681000,5.518599 
	C15.681000,5.518599 15.971966,5.140950 15.971966,5.140950 
	C16.798737,5.076137 17.625509,4.954540 18.452276,4.954597 
	C82.335976,4.959029 146.219681,4.973020 210.644562,5.211708 
	C211.185730,5.437140 211.608353,5.549219 211.608353,5.549219 
	C211.608353,5.549219 211.951996,5.225405 211.951996,5.225405 
	C217.678925,6.209300 220.716110,9.853266 221.734558,15.761937 
	C221.648697,16.468327 221.751114,16.720282 221.853516,16.972235 
	C221.912872,19.962460 222.023865,22.952681 222.023926,25.942907 
	C222.025269,86.995514 222.013977,148.048126 221.783295,209.649323 
	C221.506927,210.294861 221.382065,210.437088 221.410248,210.480896 
	C221.524841,210.659042 221.686371,210.806992 221.830597,210.966064 
	C221.379471,216.783859 217.983170,220.101669 212.203644,221.645416 
	C211.415298,221.351974 211.173462,221.464752 211.028748,221.851181 
	C192.986588,221.910126 174.944443,221.969055 156.336426,221.756180 
	C155.578949,221.245895 155.335159,221.087936 154.955154,220.547607 
	C154.930420,193.052261 154.989716,166.019806 155.248901,138.900818 
	C155.704544,138.650620 155.878906,138.424286 156.437195,138.061615 
	C165.504623,137.987991 174.106720,137.987991 182.953598,137.987991 
	C184.384308,126.925659 185.759537,116.292267 187.232239,104.905174 
	C176.471817,104.905174 166.225372,104.905174 155.880341,104.704521 
	C155.593353,104.257507 155.349503,104.093628 154.961304,103.550034 
	C154.960312,95.382790 155.048187,87.677742 155.282104,79.895935 
	C155.654709,79.510963 155.586014,79.253555 155.217667,78.689926 
	C156.241653,74.251686 158.120819,70.519775 162.572281,69.824867 
	C168.342163,68.924149 174.229431,68.739799 180.073914,68.369217 
	C182.658188,68.205353 185.261475,68.341591 188.069275,68.341591 
	C188.069275,58.267391 188.069275,48.864212 188.069275,38.466084 
	C178.829285,38.244438 169.747543,37.581379 160.699738,37.895470 
	C136.410736,38.738644 121.399918,54.317463 121.014809,78.611153 
	C120.880493,87.084648 120.883247,95.560318 120.644363,104.132431 
	C120.241859,104.402954 120.093597,104.626038 119.557175,104.983307 
	C110.404007,105.048088 101.714211,105.028664 92.629219,105.107422 
	C91.829582,105.861572 91.078712,106.514473 91.072876,107.173973 
	C90.990486,116.480316 90.951279,125.788414 91.089325,135.093307 
	C91.103889,136.074554 92.305771,137.038177 93.427826,137.990479 
	C102.608109,138.028564 111.317383,138.086136 120.110931,138.322418 
	C120.355904,138.721405 120.565048,138.876221 120.889496,139.432129 
	C120.912148,166.943466 120.867950,193.988281 120.647049,221.126877 
	C120.248116,221.386765 120.098877,221.603195 120.022652,221.869995 
	C85.648071,221.921448 51.273495,221.972900 16.357140,221.796371 
	C15.503737,221.345749 15.246972,221.417786 15.045069,221.784454 
	C9.739926,220.922897 6.644165,217.662384 5.307059,212.217560 
	C5.641421,211.424713 5.530364,211.177979 5.135175,211.027481 
	C5.067793,210.034698 4.941441,209.041901 4.941452,208.049118 
	C4.942155,144.331696 4.953122,80.614273 5.196134,16.354136 
	C5.649348,15.492240 5.570932,15.235304 5.193852,15.040614 
M189.057358,43.063133 
	C189.057358,50.964252 189.057358,58.865368 189.057358,66.766487 
	C189.371567,66.763840 189.685791,66.761192 190.000000,66.758553 
	C190.000000,62.325844 190.000000,57.893135 190.000000,53.460426 
	C190.000000,49.066769 190.000000,44.673115 190.000000,38.993492 
	C189.249878,40.458271 189.123352,40.598820 189.111160,40.748672 
	C189.071060,41.241730 189.072372,41.738155 189.057358,43.063133 
z"/>
<path fill="#FEFEFF" opacity="1.000000" stroke="none" 
	d="
M155.136063,79.972694 
	C155.048187,87.677742 154.960312,95.382790 154.947845,103.825325 
	C155.341843,104.676933 155.660385,104.791054 155.978943,104.905174 
	C166.225372,104.905174 176.471817,104.905174 187.232239,104.905174 
	C185.759537,116.292267 184.384308,126.925659 182.953598,137.987991 
	C174.106720,137.987991 165.504623,137.987991 156.167633,138.043274 
	C155.304825,138.394821 155.176926,138.691086 155.049011,138.987366 
	C154.989716,166.019806 154.930420,193.052261 154.886688,220.792084 
	C154.937119,221.665146 154.972000,221.830795 155.006866,221.996460 
	C143.955612,221.993073 132.904373,221.989685 121.407196,221.738632 
	C120.961273,221.490982 120.823746,221.033081 120.823746,221.033081 
	C120.867950,193.988281 120.912148,166.943466 120.923401,139.180603 
	C120.602516,138.356277 120.314583,138.250000 120.026657,138.143707 
	C111.317383,138.086136 102.608109,138.028564 93.255249,137.547699 
	C92.749252,126.419373 92.886833,115.714302 93.024422,105.009239 
	C101.714211,105.028664 110.404007,105.048088 119.816452,105.001175 
	C120.633873,104.634880 120.728638,104.334938 120.823402,104.034996 
	C120.883247,95.560318 120.880493,87.084648 121.014809,78.611153 
	C121.399918,54.317463 136.410736,38.738644 160.699738,37.895470 
	C169.747543,37.581379 178.829285,38.244438 188.069275,38.466084 
	C188.069275,48.864212 188.069275,58.267391 188.069275,68.341591 
	C185.261475,68.341591 182.658188,68.205353 180.073914,68.369217 
	C174.229431,68.739799 168.342163,68.924149 162.572281,69.824867 
	C158.120819,70.519775 156.241653,74.251686 155.132782,78.915482 
	C155.052231,79.498047 155.136063,79.972694 155.136063,79.972694 
z"/>
<path fill="#0075C0" opacity="1.000000" stroke="none" 
	d="
M211.263809,221.896606 
	C211.173462,221.464752 211.415298,221.351974 211.850983,221.644073 
	C211.947723,221.775284 211.498871,221.942017 211.263809,221.896606 
z"/>
<path fill="#0075C0" opacity="1.000000" stroke="none" 
	d="
M155.252106,221.998642 
	C154.972000,221.830795 154.937119,221.665146 154.970734,221.254990 
	C155.335159,221.087936 155.578949,221.245895 155.871307,221.680939 
	C155.972046,221.877502 155.497330,222.000824 155.252106,221.998642 
z"/>
<path fill="#0077C1" opacity="1.000000" stroke="none" 
	d="
M120.647049,221.126877 
	C120.823746,221.033081 120.961273,221.490982 120.932625,221.728302 
	C120.903976,221.965637 120.455681,221.988297 120.239166,221.929138 
	C120.098877,221.603195 120.248116,221.386765 120.647049,221.126877 
z"/>
<path fill="#0077C1" opacity="1.000000" stroke="none" 
	d="
M15.271450,221.864807 
	C15.246972,221.417786 15.503737,221.345749 15.892989,221.714050 
	C15.970613,221.859726 15.497832,221.945160 15.271450,221.864807 
z"/>
<path fill="#0074C0" opacity="1.000000" stroke="none" 
	d="
M5.092785,211.262985 
	C5.530364,211.177979 5.641421,211.424713 5.330867,211.861450 
	C5.193388,211.955215 5.050395,211.498489 5.092785,211.262985 
z"/>
<path fill="#0077C1" opacity="1.000000" stroke="none" 
	d="
M221.891205,210.733673 
	C221.686371,210.806992 221.524841,210.659042 221.410248,210.480896 
	C221.382065,210.437088 221.506927,210.294861 221.707458,210.114502 
	C221.853516,210.031128 221.951813,210.501282 221.891205,210.733673 
z"/>
<path fill="#0077C1" opacity="1.000000" stroke="none" 
	d="
M221.902710,16.737270 
	C221.751114,16.720282 221.648697,16.468327 221.688538,16.127041 
	C221.830795,16.037710 221.951889,16.502304 221.902710,16.737270 
z"/>
<path fill="#0074C0" opacity="1.000000" stroke="none" 
	d="
M5.122241,15.269255 
	C5.570932,15.235304 5.649348,15.492240 5.282173,15.890486 
	C5.135247,15.969549 5.050629,15.497894 5.122241,15.269255 
z"/>
<path fill="#0074C0" opacity="1.000000" stroke="none" 
	d="
M211.727539,5.141795 
	C211.951996,5.225405 211.608353,5.549219 211.608353,5.549219 
	C211.608353,5.549219 211.185730,5.437140 211.109131,5.292658 
	C211.032532,5.148176 211.503067,5.058185 211.727539,5.141795 
z"/>
<path fill="#0074C0" opacity="1.000000" stroke="none" 
	d="
M15.736572,5.098447 
	C15.971966,5.140950 15.681000,5.518599 15.681000,5.518599 
	C15.681000,5.518599 15.243046,5.481732 15.146688,5.348846 
	C15.050331,5.215961 15.501178,5.055943 15.736572,5.098447 
z"/>
<path fill="#047AC2" opacity="1.000000" stroke="none" 
	d="
M92.629219,105.107422 
	C92.886833,115.714302 92.749252,126.419373 92.784241,137.567215 
	C92.305771,137.038177 91.103889,136.074554 91.089325,135.093307 
	C90.951279,125.788414 90.990486,116.480316 91.072876,107.173973 
	C91.078712,106.514473 91.829582,105.861572 92.629219,105.107422 
z"/>
<path fill="#0077C1" opacity="1.000000" stroke="none" 
	d="
M189.057571,42.648209 
	C189.072372,41.738155 189.071060,41.241730 189.111160,40.748672 
	C189.123352,40.598820 189.249878,40.458271 190.000000,38.993492 
	C190.000000,44.673115 190.000000,49.066769 190.000000,53.460426 
	C190.000000,57.893135 190.000000,62.325844 190.000000,66.758553 
	C189.685791,66.761192 189.371567,66.763840 189.057358,66.766487 
	C189.057358,58.865368 189.057358,50.964252 189.057571,42.648209 
z"/>
<path fill="#0075C0" opacity="1.000000" stroke="none" 
	d="
M155.248901,138.900818 
	C155.176926,138.691086 155.304825,138.394821 155.702301,138.116882 
	C155.878906,138.424286 155.704544,138.650620 155.248901,138.900818 
z"/>
<path fill="#0074C0" opacity="1.000000" stroke="none" 
	d="
M120.110931,138.322433 
	C120.314583,138.250000 120.602516,138.356277 120.856552,138.714081 
	C120.565048,138.876221 120.355904,138.721405 120.110931,138.322433 
z"/>
<path fill="#0073BF" opacity="1.000000" stroke="none" 
	d="
M155.880341,104.704521 
	C155.660385,104.791054 155.341843,104.676933 155.036743,104.287521 
	C155.349503,104.093628 155.593353,104.257507 155.880341,104.704521 
z"/>
<path fill="#0073BF" opacity="1.000000" stroke="none" 
	d="
M120.644363,104.132431 
	C120.728638,104.334938 120.633873,104.634880 120.279831,104.916969 
	C120.093597,104.626038 120.241859,104.402954 120.644363,104.132431 
z"/>
<path fill="#0073BF" opacity="1.000000" stroke="none" 
	d="
M155.282104,79.895935 
	C155.136063,79.972694 155.052231,79.498047 155.137115,79.272499 
	C155.586014,79.253555 155.654709,79.510963 155.282104,79.895935 
z"/>
</svg>