<svg version="1.1" id="Layer_1" xmlns="http://www.w3.org/2000/svg" xmlns:xlink="http://www.w3.org/1999/xlink" x="0px" y="0px"
	 width="100%" viewBox="0 0 225 225" enable-background="new 0 0 225 225" xml:space="preserve">
<path fill="#FEFEFE" opacity="1.000000" stroke="none" 
	d="
M88.000000,226.000000 
	C83.310745,226.000000 78.621490,226.000000 73.810150,225.731018 
	C67.509796,220.348083 60.487598,215.964203 55.312817,209.982208 
	C40.288918,192.614731 30.394964,172.389343 25.520197,149.916138 
	C21.077938,129.436844 20.155153,108.986298 29.123665,89.300934 
	C39.703102,66.079697 62.517658,53.044521 85.885147,57.050041 
	C91.536896,58.018829 97.125862,60.078278 102.387634,62.432133 
	C110.811630,66.200607 118.841064,66.552643 127.230362,62.410385 
	C131.364243,60.369259 135.883560,59.051655 140.311218,57.672237 
	C161.713364,51.004471 186.716919,59.563835 198.676407,77.716682 
	C197.417816,78.746552 196.132126,79.779800 194.866653,80.837234 
	C188.159531,86.441689 182.436295,92.817474 178.885971,100.944717 
	C168.833679,123.955978 177.340179,150.021576 199.593719,163.079941 
	C203.970520,165.648254 204.714127,167.890366 202.758652,172.433350 
	C196.940567,185.950012 189.563141,198.492264 180.445496,210.003571 
	C175.439499,216.323837 169.742126,221.862320 161.756210,224.400879 
	C161.373383,224.522552 161.246216,225.448563 161.000000,226.000000 
	C156.643097,226.000000 152.286194,226.000000 147.703384,225.659744 
	C143.492462,223.743439 139.418045,222.359894 135.537888,220.558044 
	C118.648911,212.715195 103.143166,218.554703 87.703278,225.221558 
	C87.692207,225.226349 87.896378,225.729599 88.000000,226.000000 
z"/>
<path fill="#010101" opacity="1.000000" stroke="none" 
	d="
M161.468658,226.000000 
	C161.246216,225.448563 161.373383,224.522552 161.756210,224.400879 
	C169.742126,221.862320 175.439499,216.323837 180.445496,210.003571 
	C189.563141,198.492264 196.940567,185.950012 202.758652,172.433350 
	C204.714127,167.890366 203.970520,165.648254 199.593719,163.079941 
	C177.340179,150.021576 168.833679,123.955978 178.885971,100.944717 
	C182.436295,92.817474 188.159531,86.441689 194.866653,80.837234 
	C196.132126,79.779800 197.417816,78.746552 198.676407,77.716682 
	C186.716919,59.563835 161.713364,51.004471 140.311218,57.672237 
	C135.883560,59.051655 131.364243,60.369259 127.230362,62.410385 
	C118.841064,66.552643 110.811630,66.200607 102.387634,62.432133 
	C97.125862,60.078278 91.536896,58.018829 85.885147,57.050041 
	C62.517658,53.044521 39.703102,66.079697 29.123665,89.300934 
	C20.155153,108.986298 21.077938,129.436844 25.520197,149.916138 
	C30.394964,172.389343 40.288918,192.614731 55.312817,209.982208 
	C60.487598,215.964203 67.509796,220.348083 73.344032,225.731018 
	C49.023552,226.000000 25.047104,226.000000 1.035328,226.000000 
	C1.035328,151.097168 1.035328,76.194313 1.035328,1.000000 
	C50.353844,1.000000 99.708267,1.000000 149.839783,1.308642 
	C149.653076,2.146841 148.680191,2.660597 147.726959,3.208539 
	C141.858276,6.582030 135.344406,9.194976 130.258347,13.495663 
	C118.245750,23.653332 112.246201,36.841469 113.113571,52.876202 
	C138.688248,53.873970 160.678101,28.161732 158.000000,1.000000 
	C180.638947,1.000000 203.277878,1.000000 225.958405,1.000000 
	C225.958405,75.880508 225.958405,150.761047 225.958405,226.000000 
	C204.647110,226.000000 183.292206,226.000000 161.468658,226.000000 
z"/>
<path fill="#FCFCFC" opacity="1.000000" stroke="none" 
	d="
M157.555832,1.000000 
	C160.678101,28.161732 138.688248,53.873970 113.113571,52.876202 
	C112.246201,36.841469 118.245750,23.653332 130.258347,13.495663 
	C135.344406,9.194976 141.858276,6.582030 147.726959,3.208539 
	C148.680191,2.660597 149.653076,2.146841 150.308441,1.308642 
	C152.370560,1.000000 154.741104,1.000000 157.555832,1.000000 
z"/>
<path fill="#050505" opacity="1.000000" stroke="none" 
	d="
M88.468658,226.000000 
	C87.896378,225.729599 87.692207,225.226349 87.703278,225.221558 
	C103.143166,218.554703 118.648911,212.715195 135.537888,220.558044 
	C139.418045,222.359894 143.492462,223.743439 147.238739,225.659744 
	C127.645775,226.000000 108.291542,226.000000 88.468658,226.000000 
z"/>
</svg>