<svg version="1.1" id="Layer_1" xmlns="http://www.w3.org/2000/svg" xmlns:xlink="http://www.w3.org/1999/xlink" x="0px" y="0px"
	 width="100%" viewBox="0 0 225 225" enable-background="new 0 0 225 225" xml:space="preserve">
<path fill="#FEFEFE" opacity="1.000000" stroke="none" 
	d="
M138.000000,226.000000 
	C92.000000,226.000000 46.500004,226.000000 1.000006,226.000000 
	C1.000004,151.000000 1.000004,76.000015 1.000002,1.000016 
	C75.999992,1.000011 150.999985,1.000011 225.999969,1.000005 
	C225.999985,75.999985 225.999985,150.999969 226.000000,225.999969 
	C196.833328,226.000000 167.666672,226.000000 138.000000,226.000000 
M115.683220,134.679794 
	C133.339737,134.679794 150.996262,134.679794 168.940994,134.679794 
	C166.299133,148.449554 158.827972,158.017181 148.017776,165.985825 
	C141.042206,170.146225 133.786819,173.648956 125.637802,174.751724 
	C117.682190,175.828293 109.658234,177.031891 101.720734,174.895493 
	C79.205833,168.835571 63.609348,155.041855 55.279819,132.218735 
	C51.297916,119.497383 51.585278,106.789986 55.840202,93.562912 
	C56.143776,92.790222 56.452858,92.019646 56.750130,91.244537 
	C71.469116,52.865330 118.378418,38.876041 149.542755,63.865311 
	C152.116364,65.928978 154.212173,65.631897 156.442154,63.307388 
	C160.129074,59.464191 163.974167,55.773045 167.737915,52.003143 
	C172.598969,47.134129 177.445572,42.250687 182.343887,37.327744 
	C178.107285,33.874706 174.576431,30.645927 170.703888,27.898840 
	C149.256912,12.684941 125.053040,8.709114 99.540131,11.503813 
	C91.882660,12.342616 84.152969,14.418183 76.954979,17.211857 
	C52.108028,26.855427 33.301773,43.430134 21.128181,68.180626 
	C6.832903,98.682884 6.506968,129.102264 21.798498,160.119980 
	C27.211666,171.558441 34.876461,181.333801 44.233124,189.744415 
	C68.037422,211.141815 96.138199,219.368317 127.651749,215.760864 
	C147.912827,213.441513 166.208954,206.060806 181.881317,191.609955 
	C207.483093,167.002380 214.555725,136.194855 211.722733,102.121346 
	C211.527420,99.772316 210.562912,97.487228 209.502396,94.976151 
	C209.502396,94.976151 209.014542,95.055946 208.086319,94.900322 
	C177.052521,94.952545 146.018738,95.004776 114.393326,95.061043 
	C114.232292,95.383888 114.071266,95.706734 113.731468,96.949615 
	C113.796021,108.957420 113.860573,120.965233 113.926941,133.627762 
	C114.257347,133.874969 114.587746,134.122177 115.683220,134.679794 
z"/>
<path fill="#EA4335" opacity="1.000000" stroke="none" 
	d="
M21.604321,67.653000 
	C33.301773,43.430134 52.108028,26.855427 76.954979,17.211857 
	C84.152969,14.418183 91.882660,12.342616 99.540131,11.503813 
	C125.053040,8.709114 149.256912,12.684941 170.703888,27.898840 
	C174.576431,30.645927 178.107285,33.874706 182.343887,37.327744 
	C177.445572,42.250687 172.598969,47.134129 167.737915,52.003143 
	C163.974167,55.773045 160.129074,59.464191 156.442154,63.307388 
	C154.212173,65.631897 152.116364,65.928978 149.542755,63.865311 
	C118.378418,38.876041 71.469116,52.865330 56.750130,91.244537 
	C56.452858,92.019646 56.143776,92.790222 55.414986,93.534393 
	C43.861286,84.888245 32.732803,76.270622 21.604321,67.653000 
z"/>
<path fill="#35A854" opacity="1.000000" stroke="none" 
	d="
M181.337524,191.883362 
	C166.208954,206.060806 147.912827,213.441513 127.651749,215.760864 
	C96.138199,219.368317 68.037422,211.141815 44.233124,189.744415 
	C34.876461,181.333801 27.211666,171.558441 22.051556,159.572021 
	C33.367504,150.360886 44.430401,141.697708 55.493298,133.034515 
	C63.609348,155.041855 79.205833,168.835571 101.720734,174.895493 
	C109.658234,177.031891 117.682190,175.828293 125.637802,174.751724 
	C133.786819,173.648956 141.042206,170.146225 148.593079,166.172867 
	C159.891418,174.867737 170.614471,183.375549 181.337524,191.883362 
z"/>
<path fill="#4385F4" opacity="1.000000" stroke="none" 
	d="
M181.609421,191.746658 
	C170.614471,183.375549 159.891418,174.867737 148.928589,166.094421 
	C158.827972,158.017181 166.299133,148.449554 168.940994,134.679794 
	C150.996262,134.679794 133.339737,134.679794 115.230240,134.231506 
	C114.493210,133.513168 114.209160,133.243103 113.925110,132.973038 
	C113.860573,120.965233 113.796021,108.957420 114.050964,96.388855 
	C114.575287,95.571068 114.780113,95.314034 114.984940,95.056999 
	C146.018738,95.004776 177.052521,94.952545 208.624329,95.135284 
	C209.426941,95.304298 209.691513,95.238350 209.956100,95.172409 
	C210.562912,97.487228 211.527420,99.772316 211.722733,102.121346 
	C214.555725,136.194855 207.483093,167.002380 181.609421,191.746658 
z"/>
<path fill="#FBBC06" opacity="1.000000" stroke="none" 
	d="
M55.386559,132.626617 
	C44.430401,141.697708 33.367504,150.360886 21.987076,159.226929 
	C6.506968,129.102264 6.832903,98.682884 21.366251,67.916809 
	C32.732803,76.270622 43.861286,84.888245 55.197105,93.800003 
	C51.585278,106.789986 51.297916,119.497383 55.386559,132.626617 
z"/>
<path fill="#317DF3" opacity="1.000000" stroke="none" 
	d="
M114.689133,95.059021 
	C114.780113,95.314034 114.575287,95.571068 114.140350,95.928833 
	C114.071266,95.706734 114.232292,95.383888 114.689133,95.059021 
z"/>
<path fill="#317DF3" opacity="1.000000" stroke="none" 
	d="
M209.729248,95.074280 
	C209.691513,95.238350 209.426941,95.304298 209.088440,95.213089 
	C209.014542,95.055946 209.502396,94.976151 209.729248,95.074280 
z"/>
<path fill="#317DF3" opacity="1.000000" stroke="none" 
	d="
M113.926025,133.300400 
	C114.209160,133.243103 114.493210,133.513168 114.847702,134.076309 
	C114.587746,134.122177 114.257347,133.874969 113.926025,133.300400 
z"/>
</svg>